inDegrees=no
num_controls=7
num_derivatives=13
num_iterations=115
num_multipliers=7
num_parameters=0
num_slacks=7
num_states=26
objective=0.476971
objective_accelerations=0.044254
objective_balance=0.003630
objective_effort=0.040522
objective_height=0.382901
objective_ligament=0.005664
solver_duration=1577.899524
status=Solve_Succeeded
success=true
DataType=double
version=3
OpenSimVersion=4.5
endheader
time	/jointset/ground_pelvis/pelvis_tilt/value	/jointset/ground_pelvis/pelvis_tx/value	/jointset/ground_pelvis/pelvis_ty/value	/jointset/hip_l/hip_flexion_l/value	/jointset/hip_l/hip_adduction_l/value	/jointset/hip_l/hip_rotation_l/value	/jointset/back/lumbar_extension/value	/jointset/patellofemoral_l/patellar_flexion_l/value	/jointset/knee_l/knee_flexion_l/value	/jointset/knee_l/knee_adduction_l/value	/jointset/knee_l/knee_rotation_l/value	/jointset/ankle_l/ankle_angle_l/value	/jointset/subtalar_l/subtalar_angle_l/value	/jointset/ground_pelvis/pelvis_tilt/speed	/jointset/ground_pelvis/pelvis_tx/speed	/jointset/ground_pelvis/pelvis_ty/speed	/jointset/hip_l/hip_flexion_l/speed	/jointset/hip_l/hip_adduction_l/speed	/jointset/hip_l/hip_rotation_l/speed	/jointset/back/lumbar_extension/speed	/jointset/patellofemoral_l/patellar_flexion_l/speed	/jointset/knee_l/knee_flexion_l/speed	/jointset/knee_l/knee_adduction_l/speed	/jointset/knee_l/knee_rotation_l/speed	/jointset/ankle_l/ankle_angle_l/speed	/jointset/subtalar_l/subtalar_angle_l/speed	/forceset/tau_hip_flexion_l	/forceset/tau_hip_adduction_l	/forceset/tau_hip_rotation_l	/forceset/tau_knee_flexion_l	/forceset/tau_ankle_angle_l	/forceset/tau_subtalar_angle_l	/forceset/tau_lumbar_extension	lambda_cid13_p0	lambda_cid13_p1	lambda_cid13_p2	lambda_cid13_p3	lambda_cid13_p4	lambda_cid13_p5	lambda_cid14_p0	/jointset/ground_pelvis/pelvis_tilt/accel	/jointset/ground_pelvis/pelvis_tx/accel	/jointset/ground_pelvis/pelvis_ty/accel	/jointset/hip_l/hip_flexion_l/accel	/jointset/hip_l/hip_adduction_l/accel	/jointset/hip_l/hip_rotation_l/accel	/jointset/back/lumbar_extension/accel	/jointset/patellofemoral_l/patellar_flexion_l/accel	/jointset/knee_l/knee_flexion_l/accel	/jointset/knee_l/knee_adduction_l/accel	/jointset/knee_l/knee_rotation_l/accel	/jointset/ankle_l/ankle_angle_l/accel	/jointset/subtalar_l/subtalar_angle_l/accel	gamma_cid13_p0	gamma_cid13_p1	gamma_cid13_p2	gamma_cid13_p3	gamma_cid13_p4	gamma_cid13_p5	gamma_cid14_p0
0.5	-0.0950238980575788	-0.04174050243694721	0.8066970462240075	0.9309236533187963	-0.3296160148653115	-0.07872398791783376	-0.7898374986945126	0.921085819145791	0.9210858191452043	-0.1032652384853419	-0.1743236163474365	0.1493129017754645	0.01350296088770502	-0.1288714319128695	-0.1587690658148613	-0.4169989632377832	1.601401366754272	-0.03018147080533109	0.5645324742035501	-0.8394659433650818	1.783612641604195	1.783612641603996	0.149444290793397	0.0004434907211465328	0.432409602813952	0.1145053706555075	-0.2693111880104155	0.02411529030234042	-0.004828680473786527	-0.2485521278411747	0.08793858648409485	0.04231228514721912	0.3255670184778192	-15.86727333413022	-17.07412493351889	3.953886726881542	-9.355117751905217	-700.031483436895	-72.11755168973971	-9.758108903701348	0.2772775754582571	0.6633480472612204	-0.2067634948753892	-1.460111784980633	0.3291608687327043	-0.5053094975799407	1.836111409277032	-1.385314655741248	-1.385314655741234	-0.2155234525182579	-0.01233900475741202	-0.2711784963642015	0.3348827736601168	-2.5836054245522e-07	-1.804562698817463e-07	1.521706298278858e-06	1.413481673334292e-07	-2.871388513538216e-07	-1.017765837073269e-07	-2.198307708658778e-07
0.51	-0.09629853661493362	-0.04329498205076775	0.8025176614216801	0.946862160435805	-0.3299022279011545	-0.07310300893048619	-0.7981394199076444	0.93884981840329	0.9388498184026747	-0.1017842357762316	-0.1743196815974639	0.1536223656125763	0.01466342886228985	-0.1260352265809967	-0.1521240162026233	-0.4187814785206118	1.586071941879807	-0.02707025925636072	0.5596034528356826	-0.8208241936321453	1.768926685227886	1.768926685227635	0.1467438869698244	0.0003455793535041946	0.4294109402814406	0.1175582810570194	-0.2756597637523778	0.02450576463182423	-0.004967262500447754	-0.2520955807132093	0.08679238271054081	0.0423800923082709	0.3319348313677619	-16.50130845557686	-16.92779935830443	3.856587087726363	-9.116880242867806	-704.6640514476128	-71.92543411704062	-9.034233527097062	0.2899261180588191	0.6655381240037389	-0.1495735444227596	-1.603606659690315	0.3005282591044535	-0.4958808547853847	1.892322599708123	-1.549271686322705	-1.549271686330713	-0.2991512749457497	-0.007901060079796879	-0.3250428486765198	0.2858510673090793	-2.504341966871187e-07	-1.772011997325401e-07	1.490798889335864e-06	1.378668735360113e-07	-2.752897021621408e-07	-7.277685260479859e-08	-2.164444029776346e-07
0.52	-0.09754418629776761	-0.04478292022730621	0.7983233358666371	0.9626405235398662	-0.3301576434292836	-0.06753315663649392	-0.8062521004545655	0.9564591509854766	0.9564591509848317	-0.1003306075908878	-0.1743166027326334	0.1578996762809665	0.01585349711967233	-0.1230736570088446	-0.1454607783584432	-0.4199871137808767	1.569372564164907	-0.02402196926238146	0.5543071355320078	-0.8016178101229616	1.752679306541697	1.752679306541391	0.1439693860394924	0.0002723136933766197	0.4259789690696529	0.1204254272150268	-0.2820083394943436	0.02489623896131288	-0.005105844527099878	-0.2556390335852439	0.08564617893698911	0.04244789946932913	0.3383026442577005	-17.13720991184498	-16.78142664760457	3.759600712488827	-8.922475952807643	-709.3559046176259	-71.78571608286508	-8.312263399651098	0.3023504235141077	0.6669856936496382	-0.09138749036266144	-1.734102353067507	0.3165765577344844	-0.5787686847413486	1.949038164526482	-1.697599117717454	-1.697599117717445	-0.2303428738701344	-0.007409863254450135	-0.3578402322195033	0.2977299249592247	-2.465283501440121e-07	-2.248488944107163e-07	1.44730367321483e-06	1.275579539086299e-07	-2.677378464816948e-07	-5.933236255689961e-08	-2.179238481646469e-07
0.53	-0.09875962560476678	-0.04620418296439682	0.7941198624752392	0.9782451506027144	-0.3303829195376795	-0.06201835413445148	-0.8141700286362661	0.9738983537490329	0.973898353748358	-0.09890488524700193	-0.1743143962453532	0.1621405839113541	0.01707128898746207	-0.1199964385012592	-0.1387931935437313	-0.4206089789666632	1.55133384868975	-0.0210431802355394	0.5485853557782033	-0.7818858121703735	1.734913700320982	1.734913700321089	0.1411762114288371	0.0001673424032335746	0.4221392286846322	0.1231042967795053	-0.2881098265211203	0.02518377536613582	-0.005201809977966169	-0.2593388393727142	0.08461015968125196	0.04235899095336664	0.3444380440904419	-17.74277653831696	-16.56356403794545	3.641232762356518	-8.676117272759543	-713.9919597439203	-71.55282310827954	-7.597230191993528	0.3130499352628922	0.6664556313598493	-0.03285095712782654	-1.871635712815415	0.2868578559760601	-0.5792862226042592	1.997582717681236	-1.853129511382765	-1.853129511321013	-0.3036578136724989	-0.01200470930930873	-0.4065437267228625	0.2485410035783702	-2.378671669225533e-07	-2.277770102772848e-07	1.406177116003393e-06	1.222560475017441e-07	-2.559393855760988e-07	-3.463588619074208e-08	-2.139269552753282e-07
